<svg width="192" height="24" viewBox="0 0 192 24" fill="none" xmlns="http://www.w3.org/2000/svg">
<path d="M33.6026 10.3226C35.4534 10.8612 36.3788 12.125 36.3788 14.1139C36.3788 15.3984 35.9575 16.4066 35.115 17.1387C34.2863 17.8707 33.1468 18.2367 31.6966 18.2367H25.8542V3.73438H30.9922C32.3596 3.73438 33.3955 4.03133 34.0999 4.62523C34.8043 5.21914 35.1565 6.09618 35.1565 7.25637C35.1565 7.96077 35.0252 8.57539 34.7628 9.10024C34.5004 9.61127 34.1137 10.0187 33.6026 10.3226ZM28.2575 9.55602H30.6607C31.3513 9.55602 31.8693 9.41791 32.2146 9.14167C32.5737 8.85162 32.7532 8.37512 32.7532 7.71216C32.7532 7.04919 32.5737 6.57959 32.2146 6.30336C31.8693 6.01331 31.3513 5.86829 30.6607 5.86829H28.2575V9.55602ZM31.3858 16.0821C33.0294 16.0821 33.8512 15.357 33.8512 13.9067C33.8512 13.1195 33.6303 12.5601 33.1883 12.2286C32.7601 11.8833 32.1593 11.7107 31.3858 11.7107H28.2575V16.0821H31.3858Z" fill="white"/>
<path d="M37.8782 3.73438H40.1986V6.1169H37.8782V3.73438ZM37.8782 7.96077H40.1986V18.2367H37.8782V7.96077Z" fill="white"/>
<path d="M45.8642 18.4439C44.9665 18.4439 44.2828 18.1884 43.8132 17.6773C43.3574 17.1663 43.1295 16.5517 43.1295 15.8335V9.82535H41.5757L41.7829 7.96077H43.1295V5.59896L45.4499 5.35035V7.96077H47.8738V9.82535H45.4499V14.7561C45.4499 15.3639 45.4844 15.7851 45.5535 16.0199C45.6225 16.2409 45.7675 16.3859 45.9885 16.455C46.2233 16.524 46.6377 16.5586 47.2316 16.5586H47.8531L47.6459 18.4439H45.8642Z" fill="white"/>
<path d="M53.6479 18.4439C52.5844 18.4439 51.659 18.2091 50.8717 17.7395C50.0844 17.2561 49.4767 16.6069 49.0485 15.792C48.6342 14.9771 48.427 14.0794 48.427 13.0987C48.427 12.1181 48.6342 11.2203 49.0485 10.4054C49.4767 9.59055 50.0844 8.94831 50.8717 8.47871C51.659 7.9953 52.5844 7.75359 53.6479 7.75359C54.7252 7.75359 55.6575 7.9953 56.4447 8.47871C57.232 8.94831 57.8328 9.59055 58.2472 10.4054C58.6615 11.2203 58.8687 12.1181 58.8687 13.0987C58.8687 14.0794 58.6615 14.9771 58.2472 15.792C57.8328 16.6069 57.232 17.2561 56.4447 17.7395C55.6575 18.2091 54.7252 18.4439 53.6479 18.4439ZM53.6479 16.4964C54.5456 16.4964 55.2431 16.1926 55.7403 15.5848C56.2514 14.9771 56.5069 14.1484 56.5069 13.0987C56.5069 12.0629 56.2514 11.2411 55.7403 10.6333C55.2431 10.0118 54.5456 9.70105 53.6479 9.70105C52.7501 9.70105 52.0526 10.0118 51.5554 10.6333C51.0582 11.2411 50.8095 12.0629 50.8095 13.0987C50.8095 14.1484 51.0582 14.9771 51.5554 15.5848C52.0526 16.1926 52.7501 16.4964 53.6479 16.4964Z" fill="white"/>
<path d="M65.242 18.2996L61.084 3.59961H63.184L66.292 15.7166L69.883 3.89361H71.983L75.574 15.7166L78.682 3.59961H80.782L76.624 18.2996H74.503L70.933 6.47661L67.363 18.2996H65.242Z" fill="white"/>
<path d="M82.0505 18.2996V8.00961H83.9405V18.2996H82.0505ZM82.0505 5.69961V3.59961H83.9405V5.69961H82.0505Z" fill="white"/>
<path d="M86.5007 18.2996V8.00961H87.9707L88.3487 9.98361L87.6137 9.66861C88.3067 8.89861 88.9822 8.39461 89.6402 8.15661C90.3052 7.91861 90.9527 7.79961 91.5827 7.79961C93.0877 7.79961 94.1622 8.23361 94.8062 9.10161C95.4572 9.96961 95.7827 11.1456 95.7827 12.6296V18.2996H93.8927V12.6296C93.8927 11.5376 93.6897 10.7396 93.2837 10.2356C92.8777 9.73161 92.1847 9.47961 91.2047 9.47961C90.5117 9.47961 89.8747 9.63361 89.2937 9.94161C88.7197 10.2426 88.3417 10.7256 88.1597 11.3906L88.3907 10.2356V18.2996H86.5007Z" fill="white"/>
<path d="M102.389 23.5496C101.451 23.5496 100.611 23.4341 99.8692 23.2031C99.1342 22.9721 98.5532 22.6291 98.1262 22.1741C97.7062 21.7191 97.4962 21.1556 97.4962 20.4836C97.4962 19.9236 97.6537 19.4406 97.9687 19.0346C98.2907 18.6356 98.7282 18.3136 99.2812 18.0686C98.9522 17.9076 98.7002 17.7186 98.5252 17.5016C98.3572 17.2776 98.2732 17.0326 98.2732 16.7666C98.2732 16.4516 98.3677 16.1681 98.5567 15.9161C98.7527 15.6571 99.0642 15.4436 99.4912 15.2756C98.9172 14.9186 98.4762 14.4391 98.1682 13.8371C97.8602 13.2281 97.7062 12.5526 97.7062 11.8106C97.7062 11.0616 97.8742 10.3861 98.2102 9.78411C98.5462 9.17511 99.0292 8.69211 99.6592 8.33511C100.296 7.97811 101.059 7.79961 101.948 7.79961C102.424 7.79961 102.872 7.86961 103.292 8.00961C103.719 8.14961 104.111 8.34561 104.468 8.59761C104.783 8.41561 105.154 8.26511 105.581 8.14611C106.015 8.02711 106.498 7.96761 107.03 7.96761C107.065 7.96761 107.093 7.96761 107.114 7.96761C107.142 7.96761 107.17 7.96761 107.198 7.96761L106.967 9.22761C106.883 9.22761 106.803 9.22761 106.726 9.22761C106.649 9.22761 106.568 9.22761 106.484 9.22761C106.414 9.22761 106.253 9.23811 106.001 9.25911C105.749 9.28011 105.518 9.31861 105.308 9.37461C105.595 9.71061 105.816 10.0886 105.97 10.5086C106.131 10.9216 106.211 11.3556 106.211 11.8106C106.211 12.5946 106.04 13.2981 105.697 13.9211C105.361 14.5371 104.874 15.0271 104.237 15.3911C103.6 15.7481 102.837 15.9266 101.948 15.9266C101.696 15.9266 101.455 15.9126 101.224 15.8846C100.993 15.8496 100.772 15.8006 100.562 15.7376C100.24 15.8426 100.079 16.0246 100.079 16.2836C100.079 16.4376 100.17 16.5741 100.352 16.6931C100.534 16.8051 100.828 16.8926 101.234 16.9556L103.985 17.3966C105.098 17.5716 105.956 17.8936 106.558 18.3626C107.167 18.8316 107.471 19.4966 107.471 20.3576C107.471 21.0716 107.261 21.6631 106.841 22.1321C106.428 22.6081 105.84 22.9616 105.077 23.1926C104.314 23.4306 103.418 23.5496 102.389 23.5496ZM102.557 21.8696C103.523 21.8696 104.265 21.7436 104.783 21.4916C105.301 21.2466 105.56 20.8826 105.56 20.3996C105.56 20.0216 105.396 19.7241 105.067 19.5071C104.745 19.2901 104.279 19.1256 103.67 19.0136L100.741 18.5201C100.356 18.6881 100.02 18.9121 99.7327 19.1921C99.4457 19.4791 99.3022 19.8116 99.3022 20.1896C99.3022 20.7776 99.5962 21.2046 100.184 21.4706C100.779 21.7366 101.57 21.8696 102.557 21.8696ZM101.948 14.4146C102.746 14.4146 103.355 14.1766 103.775 13.7006C104.195 13.2176 104.405 12.5946 104.405 11.8316C104.405 11.0966 104.195 10.4946 103.775 10.0256C103.355 9.54961 102.746 9.31161 101.948 9.31161C101.15 9.31161 100.545 9.54961 100.132 10.0256C99.7187 10.4946 99.5122 11.0966 99.5122 11.8316C99.5122 12.5946 99.7187 13.2176 100.132 13.7006C100.545 14.1766 101.15 14.4146 101.948 14.4146Z" fill="white"/>
<path d="M108.69 18.2996V8.00961H110.16L110.538 9.98361L109.824 9.64761C110.468 8.95461 111.095 8.47511 111.704 8.20911C112.313 7.93611 112.953 7.79961 113.625 7.79961C114.129 7.79961 114.612 7.88361 115.074 8.05161C115.543 8.21261 115.963 8.49961 116.334 8.91261C116.712 9.31861 117.013 9.88561 117.237 10.6136L116.712 10.3826C117.02 9.58461 117.493 8.95461 118.13 8.49261C118.767 8.03061 119.624 7.79961 120.702 7.79961C121.563 7.79961 122.288 7.96061 122.876 8.28261C123.464 8.59761 123.905 9.08411 124.199 9.74211C124.5 10.3931 124.65 11.2226 124.65 12.2306V18.2996H122.76V12.2516C122.76 11.2856 122.571 10.5821 122.193 10.1411C121.815 9.70011 121.199 9.47961 120.345 9.47961C119.743 9.47961 119.26 9.57411 118.896 9.76311C118.532 9.94511 118.256 10.1831 118.067 10.4771C117.885 10.7711 117.762 11.0826 117.699 11.4116C117.643 11.7406 117.615 12.0486 117.615 12.3356V18.2996H115.725V12.6296C115.725 11.7896 115.624 11.1421 115.421 10.6871C115.218 10.2321 114.934 9.91711 114.57 9.74211C114.206 9.56711 113.786 9.47961 113.31 9.47961C112.617 9.47961 111.998 9.63361 111.452 9.94161C110.906 10.2426 110.538 10.7256 110.349 11.3906L110.58 10.3616V18.2996H108.69Z" fill="white"/>
<path d="M129.5 18.5096C128.863 18.5096 128.307 18.3801 127.831 18.1211C127.355 17.8621 126.984 17.5086 126.718 17.0606C126.459 16.6126 126.329 16.1016 126.329 15.5276C126.329 14.9466 126.455 14.4496 126.707 14.0366C126.966 13.6166 127.309 13.2701 127.736 12.9971C128.17 12.7171 128.653 12.4966 129.185 12.3356C129.717 12.1676 130.267 12.0486 130.834 11.9786C131.408 11.9016 131.957 11.8596 132.482 11.8526C132.482 10.8726 132.29 10.2321 131.905 9.93111C131.52 9.63011 130.963 9.47961 130.235 9.47961C129.85 9.47961 129.437 9.53911 128.996 9.65811C128.562 9.77711 128.072 10.0256 127.526 10.4036L127.253 8.87061C127.666 8.55561 128.181 8.30011 128.797 8.10411C129.413 7.90111 130.06 7.79961 130.739 7.79961C131.607 7.79961 132.307 7.95361 132.839 8.26161C133.371 8.56261 133.76 9.07361 134.005 9.79461C134.25 10.5156 134.372 11.4956 134.372 12.7346V14.8346C134.372 15.3246 134.393 15.7306 134.435 16.0526C134.484 16.3676 134.589 16.6056 134.75 16.7666C134.918 16.9206 135.184 16.9976 135.548 16.9976H135.737L135.443 18.5096H135.296C134.687 18.5096 134.215 18.4501 133.879 18.3311C133.55 18.2121 133.298 18.0406 133.123 17.8166C132.948 17.5926 132.79 17.3196 132.65 16.9976C132.265 17.4456 131.81 17.8096 131.285 18.0896C130.76 18.3696 130.165 18.5096 129.5 18.5096ZM129.857 16.9976C130.361 16.9976 130.848 16.8716 131.317 16.6196C131.793 16.3676 132.181 16.0316 132.482 15.6116V13.1546C131.481 13.1896 130.669 13.2876 130.046 13.4486C129.43 13.6096 128.979 13.8511 128.692 14.1731C128.405 14.4951 128.261 14.9116 128.261 15.4226C128.261 15.9756 128.408 16.3781 128.702 16.6301C129.003 16.8751 129.388 16.9976 129.857 16.9976Z" fill="white"/>
<path d="M137.196 18.2996V8.00961H138.666L139.044 9.98361L138.309 9.66861C139.002 8.89861 139.678 8.39461 140.336 8.15661C141.001 7.91861 141.648 7.79961 142.278 7.79961C143.783 7.79961 144.858 8.23361 145.502 9.10161C146.153 9.96961 146.478 11.1456 146.478 12.6296V18.2996H144.588V12.6296C144.588 11.5376 144.385 10.7396 143.979 10.2356C143.573 9.73161 142.88 9.47961 141.9 9.47961C141.207 9.47961 140.57 9.63361 139.989 9.94161C139.415 10.2426 139.037 10.7256 138.855 11.3906L139.086 10.2356V18.2996H137.196Z" fill="white"/>
<path d="M11.0804 22.1608C17.1999 22.1608 22.1608 17.1999 22.1608 11.0804C22.1608 4.96087 17.1999 0 11.0804 0C4.96086 0 0 4.96086 0 11.0804C0 13.8526 1.01805 16.387 2.70069 18.3302L3.34707 23.3732C3.40521 23.8268 3.87927 24.1005 4.30118 23.9241L8.98864 21.9636C9.66602 22.0931 10.3653 22.1608 11.0804 22.1608Z" fill="#2BAAFF"/>
<path d="M12.7686 8.4077C12.9006 7.91511 12.6083 7.4088 12.1157 7.27681C11.6231 7.14482 11.1168 7.43714 10.9848 7.92973L9.43144 13.7271C9.29945 14.2197 9.59177 14.726 10.0844 14.858C10.5769 14.99 11.0833 14.6977 11.2152 14.2051L12.7686 8.4077Z" fill="white"/>
<path d="M3.98795 10.4035C3.61404 10.7775 3.61405 11.3837 3.98795 11.7576L6.73395 14.5036C7.09455 14.8642 7.67919 14.8642 8.03979 14.5036C8.40039 14.143 8.40039 13.5583 8.03979 13.1978L5.92261 11.0806L8.03979 8.96339C8.40038 8.60279 8.40038 8.01815 8.03979 7.65755C7.67919 7.29695 7.09455 7.29695 6.73395 7.65755L3.98795 10.4035Z" fill="white"/>
<path d="M18.1727 10.4035C18.5466 10.7775 18.5466 11.3837 18.1727 11.7576L15.4267 14.5036C15.0661 14.8642 14.4815 14.8642 14.1209 14.5036C13.7603 14.143 13.7603 13.5583 14.1209 13.1978L16.2381 11.0806L14.1209 8.96339C13.7603 8.60279 13.7603 8.01815 14.1209 7.65755C14.4815 7.29695 15.0661 7.29695 15.4267 7.65755L18.1727 10.4035Z" fill="white"/>
<g filter="url(#filter0_d_11912_23184)">
<path d="M154 7C154 5.34315 155.343 4 157 4H187C188.657 4 190 5.34315 190 7V17C190 18.6569 188.657 20 187 20H157C155.343 20 154 18.6569 154 17V7Z" fill="white" fill-opacity="0.1" shape-rendering="crispEdges"/>
<path d="M161.191 16V8.047H163.749C164.717 8.047 165.448 8.22483 165.943 8.5805C166.442 8.93617 166.691 9.4495 166.691 10.1205C166.691 10.5422 166.581 10.9033 166.361 11.204C166.145 11.5047 165.763 11.7522 165.217 11.9465C165.529 12.0125 165.791 12.1078 166.004 12.2325C166.22 12.3572 166.392 12.5038 166.521 12.6725C166.653 12.8375 166.746 13.0208 166.801 13.2225C166.86 13.4242 166.889 13.6368 166.889 13.8605C166.889 14.5792 166.632 15.1163 166.119 15.472C165.609 15.824 164.847 16 163.831 16H161.191ZM162.209 15.153H163.82C164.484 15.153 164.988 15.0448 165.333 14.8285C165.681 14.6085 165.855 14.2712 165.855 13.8165C165.855 13.4828 165.769 13.2133 165.597 13.008C165.428 12.799 165.199 12.6468 164.909 12.5515C164.619 12.4562 164.297 12.4085 163.941 12.4085H162.209V15.153ZM162.209 11.545H163.941C164.15 11.545 164.357 11.5248 164.563 11.4845C164.768 11.4442 164.957 11.3745 165.129 11.2755C165.301 11.1765 165.441 11.0445 165.547 10.8795C165.653 10.7108 165.707 10.5 165.707 10.247C165.707 9.785 165.529 9.444 165.173 9.224C164.821 9.00033 164.363 8.8885 163.798 8.8885H162.209V11.545ZM170.808 16.11C170.28 16.11 169.815 15.9945 169.411 15.7635C169.008 15.5325 168.693 15.2007 168.465 14.768C168.238 14.3353 168.124 13.8165 168.124 13.2115C168.124 12.6138 168.227 12.0895 168.432 11.6385C168.638 11.1875 168.935 10.8355 169.323 10.5825C169.716 10.3295 170.187 10.203 170.737 10.203C171.272 10.203 171.725 10.3185 172.095 10.5495C172.466 10.7805 172.746 11.1068 172.937 11.5285C173.131 11.9465 173.228 12.4433 173.228 13.019V13.393H169.153C169.153 13.7523 169.212 14.0787 169.329 14.372C169.45 14.6617 169.631 14.8927 169.873 15.065C170.115 15.2373 170.422 15.3235 170.792 15.3235C171.155 15.3235 171.467 15.2392 171.727 15.0705C171.991 14.9018 172.16 14.658 172.233 14.339H173.19C173.124 14.724 172.97 15.0485 172.728 15.3125C172.49 15.5765 172.202 15.7763 171.864 15.912C171.531 16.044 171.179 16.11 170.808 16.11ZM169.158 12.7055H172.249C172.249 12.3792 172.194 12.0858 172.084 11.8255C171.974 11.5615 171.806 11.3543 171.578 11.204C171.355 11.05 171.072 10.973 170.731 10.973C170.376 10.973 170.081 11.0592 169.846 11.2315C169.611 11.4002 169.437 11.6183 169.323 11.886C169.21 12.15 169.155 12.4232 169.158 12.7055ZM176.462 16.0275C176.07 16.0275 175.765 15.9743 175.549 15.868C175.333 15.7617 175.181 15.604 175.093 15.395C175.008 15.186 174.966 14.9293 174.966 14.625V11.0555H174.042V10.313H174.994L175.241 8.6575H175.989V10.3075H177.271V11.0555H175.989V14.592C175.989 14.7937 176.009 14.9422 176.05 15.0375C176.094 15.1292 176.165 15.1878 176.264 15.2135C176.363 15.2392 176.502 15.252 176.682 15.252H177.304V15.934C177.234 15.9597 177.128 15.9817 176.985 16C176.845 16.0183 176.671 16.0275 176.462 16.0275ZM180.216 16.11C179.845 16.11 179.519 16.0458 179.237 15.9175C178.958 15.7855 178.738 15.5967 178.577 15.351C178.419 15.1053 178.34 14.8083 178.34 14.46C178.34 13.8293 178.56 13.36 179 13.052C179.44 12.744 180.146 12.579 181.118 12.557L182.13 12.5295V12.084C182.13 11.7357 182.025 11.4607 181.816 11.259C181.607 11.0537 181.285 10.951 180.848 10.951C180.522 10.9547 180.234 11.0317 179.985 11.182C179.735 11.3323 179.576 11.578 179.506 11.919H178.61C178.632 11.5487 178.734 11.237 178.918 10.984C179.105 10.7273 179.367 10.533 179.704 10.401C180.042 10.269 180.439 10.203 180.898 10.203C181.393 10.203 181.803 10.2727 182.13 10.412C182.46 10.5513 182.705 10.7567 182.867 11.028C183.032 11.2993 183.114 11.633 183.114 12.029V16H182.245L182.168 14.933C181.952 15.3767 181.673 15.6847 181.332 15.857C180.995 16.0257 180.623 16.11 180.216 16.11ZM180.518 15.3785C180.713 15.3785 180.903 15.3437 181.09 15.274C181.281 15.2043 181.453 15.1108 181.607 14.9935C181.765 14.8725 181.891 14.7387 181.987 14.592C182.082 14.4417 182.13 14.2877 182.13 14.13V13.1565L181.288 13.173C180.852 13.1803 180.489 13.2243 180.199 13.305C179.91 13.3857 179.691 13.5122 179.545 13.6845C179.398 13.8568 179.325 14.0823 179.325 14.361C179.325 14.68 179.437 14.9293 179.66 15.109C179.884 15.2887 180.17 15.3785 180.518 15.3785Z" fill="white"/>
</g>
<defs>
<filter id="filter0_d_11912_23184" x="152" y="3" width="40" height="20" filterUnits="userSpaceOnUse" color-interpolation-filters="sRGB">
<feFlood flood-opacity="0" result="BackgroundImageFix"/>
<feColorMatrix in="SourceAlpha" type="matrix" values="0 0 0 0 0 0 0 0 0 0 0 0 0 0 0 0 0 0 127 0" result="hardAlpha"/>
<feOffset dy="1"/>
<feGaussianBlur stdDeviation="1"/>
<feComposite in2="hardAlpha" operator="out"/>
<feColorMatrix type="matrix" values="0 0 0 0 0.0392157 0 0 0 0 0.0496732 0 0 0 0 0.0705882 0 0 0 0.05 0"/>
<feBlend mode="normal" in2="BackgroundImageFix" result="effect1_dropShadow_11912_23184"/>
<feBlend mode="normal" in="SourceGraphic" in2="effect1_dropShadow_11912_23184" result="shape"/>
</filter>
</defs>
</svg>
