<svg width="20" height="20" viewBox="0 0 20 20" fill="none" xmlns="http://www.w3.org/2000/svg">
<path d="M4.16673 15.8331H5.218L13.7485 7.30267L12.6972 6.2514L4.16673 14.7819V15.8331ZM2.91675 17.0831V14.2626L13.9087 3.27548C14.0348 3.16103 14.1739 3.07258 14.3262 3.01015C14.4784 2.94772 14.6381 2.9165 14.8052 2.9165C14.9723 2.9165 15.1341 2.94616 15.2907 3.00546C15.4474 3.06475 15.586 3.15903 15.7068 3.2883L16.7244 4.31873C16.8537 4.43946 16.9458 4.57837 17.0008 4.73548C17.0559 4.89258 17.0834 5.04968 17.0834 5.20678C17.0834 5.37435 17.0548 5.53426 16.9975 5.68652C16.9403 5.8388 16.8493 5.97795 16.7244 6.10396L5.73723 17.0831H2.91675ZM13.2136 6.78625L12.6972 6.2514L13.7485 7.30267L13.2136 6.78625Z" fill="#C4C9CC"/>
</svg>
