<svg width="20" height="20" viewBox="0 0 20 20" fill="none" xmlns="http://www.w3.org/2000/svg">
<path d="M3.58967 16.25C3.16872 16.25 2.81242 16.1041 2.52075 15.8125C2.22909 15.5208 2.08325 15.1645 2.08325 14.7435V5.25642C2.08325 4.83547 2.22909 4.47917 2.52075 4.1875C2.81242 3.89583 3.16872 3.75 3.58967 3.75H8.16494L9.83161 5.41667H16.4101C16.8311 5.41667 17.1874 5.5625 17.479 5.85417C17.7707 6.14583 17.9165 6.50214 17.9165 6.92308V14.7435C17.9165 15.1645 17.7707 15.5208 17.479 15.8125C17.1874 16.1041 16.8311 16.25 16.4101 16.25H3.58967ZM3.58967 15H16.4101C16.4849 15 16.5464 14.9759 16.5944 14.9279C16.6425 14.8798 16.6666 14.8183 16.6666 14.7435V6.92308C16.6666 6.84829 16.6425 6.78685 16.5944 6.73877C16.5464 6.69069 16.4849 6.66665 16.4101 6.66665H9.32042L7.65375 4.99998H3.58967C3.51488 4.99998 3.45344 5.02402 3.40536 5.0721C3.35727 5.12019 3.33323 5.18163 3.33323 5.25642V14.7435C3.33323 14.8183 3.35727 14.8798 3.40536 14.9279C3.45344 14.9759 3.51488 15 3.58967 15Z" fill="#C4C9CC"/>
</svg>
