<svg width="24" height="24" viewBox="0 0 24 24" fill="none" xmlns="http://www.w3.org/2000/svg">
<path d="M12 12.5428L4.01248 7.43541V5.99998H3.99998H3.98748V7.41942V7.44225V17.6923V18V18.0125H3.99998H4.3077H19.6923C19.785 18.0125 19.862 17.9826 19.9223 17.9223C19.9826 17.862 20.0125 17.785 20.0125 17.6923V7.44225V7.41942L19.9932 7.43172L12 12.5428ZM4.17435 17.9875H4.01248V17.8256C4.02745 17.8615 4.04917 17.8937 4.07769 17.9223C4.1062 17.9508 4.13846 17.9725 4.17435 17.9875ZM11.9933 11.0105L11.9841 11.0249L12.0067 11.0105L19.8528 6.01052L19.889 5.98748H19.8461H4.15383H4.11095L4.14711 6.01052L11.9933 11.0105ZM4.3077 19.4875C3.80581 19.4875 3.38144 19.3137 3.03384 18.9661C2.68624 18.6185 2.5125 18.1941 2.5125 17.6923V6.3077C2.5125 5.80581 2.68624 5.38144 3.03384 5.03384C3.38144 4.68624 3.80581 4.5125 4.3077 4.5125H19.6923C20.1941 4.5125 20.6185 4.68624 20.9661 5.03384C21.3137 5.38144 21.4875 5.80581 21.4875 6.3077V17.6923C21.4875 18.1941 21.3137 18.6185 20.9661 18.9661C20.6185 19.3137 20.1941 19.4875 19.6923 19.4875H4.3077Z" fill="#C4C9CC" stroke="#C4C9CC" stroke-width="0.025"/>
</svg>
