<svg width="24" height="24" viewBox="0 0 24 24" fill="none" xmlns="http://www.w3.org/2000/svg">
<path d="M9.7625 7.98443L16.0153 12L9.7625 16.0155V7.98443ZM12.0016 21.4875C10.6893 21.4875 9.456 21.2384 8.3015 20.7405C7.14674 20.2424 6.14239 19.5665 5.28834 18.7129C4.43427 17.8592 3.75808 16.8553 3.2598 15.701C2.76162 14.547 2.5125 13.314 2.5125 12.0017C2.5125 10.6893 2.76152 9.456 3.25948 8.3015C3.75755 7.14674 4.43342 6.14239 5.28709 5.28834C6.14078 4.43427 7.14469 3.75809 8.29893 3.2598C9.45291 2.76162 10.686 2.5125 11.9983 2.5125C13.3106 2.5125 14.544 2.76152 15.6985 3.25948C16.8532 3.75755 17.8576 4.43342 18.7116 5.28709C19.5657 6.14078 20.2419 7.14469 20.7402 8.29893C21.2383 9.45291 21.4875 10.686 21.4875 11.9983C21.4875 13.3106 21.2384 14.5439 20.7405 15.6985C20.2424 16.8532 19.5665 17.8576 18.7129 18.7116C17.8592 19.5657 16.8553 20.2419 15.701 20.7402C14.547 21.2383 13.314 21.4875 12.0016 21.4875ZM12 20.0125C14.2366 20.0125 16.1314 19.2362 17.6838 17.6838C19.2362 16.1314 20.0125 14.2366 20.0125 12C20.0125 9.7634 19.2362 7.86853 17.6838 6.31614C16.1314 4.76374 14.2366 3.98748 12 3.98748C9.7634 3.98748 7.86853 4.76374 6.31614 6.31614C4.76374 7.86853 3.98748 9.7634 3.98748 12C3.98748 14.2366 4.76374 16.1314 6.31614 17.6838C7.86853 19.2362 9.7634 20.0125 12 20.0125Z" fill="white" stroke="white" stroke-width="0.025"/>
</svg>
