<svg width="20" height="20" viewBox="0 0 20 20" fill="none" xmlns="http://www.w3.org/2000/svg">
<path d="M6.08975 17.0832C5.67415 17.0832 5.31919 16.936 5.02485 16.6416C4.73051 16.3473 4.58333 15.9923 4.58333 15.5767V4.99984H3.75V3.74986H7.49998V3.0127H12.5V3.74986H16.25V4.99984H15.4166V15.5767C15.4166 15.9977 15.2708 16.354 14.9791 16.6457C14.6875 16.9373 14.3312 17.0832 13.9102 17.0832H6.08975ZM14.1666 4.99984H5.83331V15.5767C5.83331 15.6515 5.85735 15.713 5.90544 15.7611C5.95352 15.8091 6.01496 15.8332 6.08975 15.8332H13.9102C13.9743 15.8332 14.0331 15.8065 14.0865 15.7531C14.1399 15.6996 14.1666 15.6408 14.1666 15.5767V4.99984ZM7.83654 14.1665H9.08652V6.66651H7.83654V14.1665ZM10.9134 14.1665H12.1634V6.66651H10.9134V14.1665Z" fill="#F04438"/>
</svg>
