<svg width="24" height="24" viewBox="0 0 24 24" fill="none" xmlns="http://www.w3.org/2000/svg">
<path d="M4.20427 17.9843L6.53428 10.2048H23.1658L20.7495 18.254C20.6362 18.6271 20.424 18.9257 20.1128 19.1504C19.8015 19.3752 19.4563 19.4875 19.0769 19.4875H4.25C3.76738 19.4875 3.35743 19.3186 3.01941 18.9805C2.6814 18.6425 2.5125 18.2326 2.5125 17.75V6.3077C2.5125 5.82528 2.69087 5.40566 3.04826 5.04826C3.40566 4.69087 3.82528 4.5125 4.3077 4.5125H9.79285L11.7892 6.50884L11.7855 6.5125H11.798H19.6923C20.1367 6.5125 20.5196 6.65599 20.8416 6.94298C21.1602 7.2269 21.3459 7.57492 21.3992 7.98748H11.1898L9.19344 5.99114L9.1971 5.98748H9.1846H4.3077C4.215 5.98748 4.13798 6.0174 4.07769 6.07769C4.0174 6.13798 3.98748 6.215 3.98748 6.3077V17.6923C3.98748 17.7649 4.00567 17.8255 4.04305 17.8731C4.07947 17.9194 4.1273 17.9589 4.18623 17.9917L4.19981 17.9992L4.20427 17.9843ZM5.75142 17.9964L5.74661 18.0125H5.7634H19.2692H19.2785L19.2812 18.0036L21.1678 11.6958L21.1726 11.6798H21.1558H7.64995H7.64064L7.63797 11.6887L5.75142 17.9964Z" fill="#C4C9CC" stroke="#C4C9CC" stroke-width="0.025"/>
</svg>
