<svg width="16" height="16" viewBox="0 0 16 16" fill="none" xmlns="http://www.w3.org/2000/svg">
<path d="M3.01527 9.6666V9.65098H2.99964C2.53789 9.65098 2.14767 9.49123 1.82802 9.17159C1.50838 8.85193 1.34863 8.4617 1.34863 7.99995C1.34863 7.5382 1.50838 7.14797 1.82802 6.82832C2.14767 6.50867 2.53789 6.34893 2.99964 6.34893H3.01527V6.3333V4.87177C3.01527 4.54453 3.1316 4.26479 3.36471 4.0317C3.5978 3.79859 3.87754 3.68226 4.20477 3.68226H6.33297H6.3486V3.66663C6.3486 3.20488 6.50834 2.81466 6.82799 2.49502C7.14765 2.17537 7.53787 2.01562 7.99963 2.01562C8.46138 2.01562 8.8516 2.17537 9.17126 2.49502C9.49091 2.81466 9.65065 3.20488 9.65065 3.66663V3.68226H9.66628H11.7945C12.1217 3.68226 12.4015 3.79859 12.6345 4.0317C12.8676 4.26479 12.984 4.54453 12.984 4.87177V6.3333V6.34893H12.9996C13.4614 6.34893 13.8516 6.50867 14.1712 6.82832C14.4909 7.14797 14.6506 7.5382 14.6506 7.99995C14.6506 8.4617 14.4909 8.85193 14.1712 9.17159C13.8516 9.49123 13.4614 9.65098 12.9996 9.65098H12.984V9.6666V12.4615C12.984 12.7887 12.8676 13.0684 12.6345 13.3015C12.4015 13.5346 12.1217 13.651 11.7945 13.651H4.20477C3.87754 13.651 3.5978 13.5346 3.36471 13.3015C3.1316 13.0684 3.01527 12.7887 3.01527 12.4615V9.6666ZM6.57833 8.24603C6.41889 8.40498 6.22605 8.48431 5.99887 8.48431C5.77172 8.48431 5.57914 8.40474 5.42021 8.24532C5.26127 8.08589 5.18193 7.89304 5.18193 7.66587C5.18193 7.43871 5.2615 7.24613 5.42092 7.0872C5.58035 6.92826 5.7732 6.84893 6.00037 6.84893C6.22753 6.84893 6.42011 6.9285 6.57904 7.08792C6.73798 7.24735 6.81732 7.4402 6.81732 7.66737C6.81732 7.89452 6.73775 8.08711 6.57833 8.24603ZM10.5783 8.24603C10.4189 8.40498 10.226 8.48431 9.99888 8.48431C9.77172 8.48431 9.57913 8.40474 9.42021 8.24532C9.26127 8.08589 9.18193 7.89304 9.18193 7.66587C9.18193 7.43871 9.2615 7.24613 9.42092 7.0872C9.58036 6.92826 9.7732 6.84893 10.0004 6.84893C10.2275 6.84893 10.4201 6.9285 10.579 7.08792C10.738 7.24735 10.8173 7.4402 10.8173 7.66737C10.8173 7.89452 10.7377 8.08711 10.5783 8.24603ZM10.484 10.1823V11.151H5.51527V10.1823H10.484ZM4.20477 12.6822H11.7945C11.858 12.6822 11.9113 12.6617 11.953 12.62C11.9947 12.5783 12.0153 12.525 12.0153 12.4615V4.87177C12.0153 4.80824 11.9947 4.75497 11.953 4.71327C11.9113 4.67156 11.858 4.65099 11.7945 4.65099H4.20477C4.14125 4.65099 4.08798 4.67156 4.04628 4.71327C4.00457 4.75497 3.984 4.80824 3.984 4.87177V12.4615C3.984 12.525 4.00457 12.5783 4.04628 12.62C4.08798 12.6617 4.14125 12.6822 4.20477 12.6822Z" fill="white" stroke="white" stroke-width="0.03125"/>
</svg>
