<svg width="24" height="24" viewBox="0 0 24 24" fill="none" xmlns="http://www.w3.org/2000/svg">
<path d="M18.6578 21.4749C18.5373 21.4749 18.4251 21.4556 18.3213 21.4171C18.2173 21.3786 18.1185 21.3126 18.025 21.2191L12.9828 16.1864C12.8891 16.0927 12.823 15.9939 12.7845 15.8901C12.7462 15.7863 12.727 15.6741 12.727 15.5536C12.727 15.4331 12.7462 15.3209 12.7845 15.2171C12.823 15.1133 12.8891 15.0146 12.9828 14.9211L14.877 13.0269C14.9705 12.9332 15.0692 12.8671 15.173 12.8286C15.2769 12.7903 15.389 12.7711 15.5095 12.7711C15.63 12.7711 15.7422 12.7903 15.846 12.8286C15.95 12.8671 16.0488 12.9332 16.1423 13.0269L21.1845 18.0691C21.2782 18.1626 21.3443 18.2613 21.3828 18.3651C21.4211 18.4691 21.4403 18.5814 21.4403 18.7019C21.4403 18.8224 21.4211 18.9345 21.3828 19.0384C21.3443 19.1422 21.2782 19.2409 21.1845 19.3344L19.2903 21.2191C19.1968 21.3126 19.0981 21.3786 18.9943 21.4171C18.8905 21.4556 18.7783 21.4749 18.6578 21.4749ZM18.6578 19.7634L19.7193 18.7019L15.525 14.5076L14.4635 15.5691L18.6578 19.7634ZM5.31729 21.4901C5.19679 21.4901 5.08204 21.4684 4.97304 21.4249C4.8642 21.3812 4.76295 21.3126 4.66929 21.2191L2.79054 19.3499C2.69687 19.2562 2.62829 19.1549 2.58479 19.0461C2.54112 18.9371 2.51929 18.8224 2.51929 18.7019C2.51929 18.5814 2.54112 18.4675 2.58479 18.3604C2.62829 18.2534 2.69687 18.153 2.79054 18.0594L8.01354 12.8364H10.1193L10.9308 12.0249L6.74804 7.8421H5.32304L2.54804 5.0671L5.02704 2.58835L7.80204 5.36335V6.78835L11.9845 10.9711L14.9423 8.01335L13.4828 6.5536L14.748 5.28835H12.202L11.6463 4.7421L14.8403 1.54785L15.3865 2.0941V4.64985L16.6518 3.3846L20.4135 7.12685C20.6775 7.38452 20.8765 7.6781 21.0105 8.0076C21.1445 8.3371 21.2115 8.68577 21.2115 9.0536C21.2115 9.37677 21.1558 9.68802 21.0443 9.98735C20.9328 10.2867 20.7706 10.5588 20.5578 10.8036L18.4713 8.7171L17.0615 10.1269L16.002 9.0671L11.1635 13.9056V16.0151L5.95004 21.2191C5.85654 21.3126 5.75779 21.3812 5.65379 21.4249C5.54995 21.4684 5.43779 21.4901 5.31729 21.4901ZM5.31729 19.7536L9.90404 15.1671V14.1056H8.84229L4.25579 18.6921L5.31729 19.7536ZM5.31729 19.7536L4.25579 18.6921L4.79429 19.2154L5.31729 19.7536Z" fill="#C4C9CC"/>
</svg>
